<?xml version="1.0" encoding="UTF-8" standalone="no" ?>
<!DOCTYPE svg PUBLIC "-//W3C//DTD SVG 1.1//EN" "http://www.w3.org/Graphics/SVG/1.1/DTD/svg11.dtd">
<svg xmlns="http://www.w3.org/2000/svg" xmlns:xlink="http://www.w3.org/1999/xlink" version="1.1" width="640" height="480" viewBox="0 0 640 480" xml:space="preserve">
<desc>Created with Fabric.js 3.6.6</desc>
<defs>
</defs>
<g transform="matrix(1.47 0 0 1.47 618.04 116.64)"  >
<rect style="stroke: none; stroke-width: 1; stroke-dasharray: none; stroke-linecap: butt; stroke-dashoffset: 0; stroke-linejoin: miter; stroke-miterlimit: 4; fill: rgb(230,230,230); fill-rule: nonzero; opacity: 1;"  x="-3" y="-0.5" rx="0" ry="0" width="6" height="1" />
</g>
<g transform="matrix(1.47 0 0 1.47 319.79 116.64)"  >
<path style="stroke: none; stroke-width: 1; stroke-dasharray: none; stroke-linecap: butt; stroke-dashoffset: 0; stroke-linejoin: miter; stroke-miterlimit: 4; fill: rgb(230,230,230); fill-rule: nonzero; opacity: 1;"  transform=" translate(-799.9, -246)" d="M 987.78048 246.5 H 975.65939 v -1 h 12.12109 Z m -24.24243 0 H 951.417 v -1 h 12.12109 Z m -24.24243 0 h -12.1211 v -1 h 12.1211 Z m -24.24243 0 h -12.1211 v -1 h 12.1211 Z m -24.24244 0 H 878.68966 v -1 h 12.12109 Z m -24.24243 0 H 854.44723 v -1 h 12.12109 Z m -24.24243 0 H 830.2048 v -1 h 12.12109 Z m -24.24243 0 H 805.96237 v -1 h 12.12109 Z m -24.24243 0 h -12.1211 v -1 H 793.841 Z m -24.24243 0 H 757.4775 v -1 h 12.1211 Z m -24.24244 0 H 733.23507 v -1 h 12.12109 Z m -24.24243 0 H 708.99264 v -1 h 12.12109 Z m -24.24243 0 H 684.75021 v -1 H 696.8713 Z m -24.24243 0 H 660.50753 v -1 h 12.12134 Z m -24.24243 0 h -12.1211 v -1 h 12.1211 Z m -24.24243 0 H 612.02267 v -1 H 624.144 Z" stroke-linecap="round" />
</g>
<g transform="matrix(1.47 0 0 1.47 21.54 116.64)"  >
<rect style="stroke: none; stroke-width: 1; stroke-dasharray: none; stroke-linecap: butt; stroke-dashoffset: 0; stroke-linejoin: miter; stroke-miterlimit: 4; fill: rgb(230,230,230); fill-rule: nonzero; opacity: 1;"  x="-3" y="-0.5" rx="0" ry="0" width="6" height="1" />
</g>
<g transform="matrix(1.47 0 0 1.47 328.61 253.27)"  >
<rect style="stroke: none; stroke-width: 1; stroke-dasharray: none; stroke-linecap: butt; stroke-dashoffset: 0; stroke-linejoin: miter; stroke-miterlimit: 4; fill: rgb(230,230,230); fill-rule: nonzero; opacity: 1;"  x="-3" y="-0.5" rx="0" ry="0" width="6" height="1" />
</g>
<g transform="matrix(1.47 0 0 1.47 175.05 253.27)"  >
<path style="stroke: none; stroke-width: 1; stroke-dasharray: none; stroke-linecap: butt; stroke-dashoffset: 0; stroke-linejoin: miter; stroke-miterlimit: 4; fill: rgb(230,230,230); fill-rule: nonzero; opacity: 1;"  transform=" translate(-701.4, -339)" d="M 790.96017 339.5 H 779.019 v -1 h 11.94116 Z m -23.88233 0 H 755.13668 v -1 h 11.94116 Z m -23.88232 0 H 731.25436 v -1 h 11.94116 Z m -23.88232 0 H 707.372 v -1 H 719.3132 Z m -23.88233 0 h -11.9414 v -1 h 11.9414 Z m -23.88257 0 H 659.60714 v -1 H 671.5483 Z m -23.88232 0 H 635.72482 v -1 H 647.666 Z m -23.88233 0 H 611.84249 v -1 h 11.94116 Z" stroke-linecap="round" />
</g>
<g transform="matrix(1.47 0 0 1.47 21.54 253.27)"  >
<rect style="stroke: none; stroke-width: 1; stroke-dasharray: none; stroke-linecap: butt; stroke-dashoffset: 0; stroke-linejoin: miter; stroke-miterlimit: 4; fill: rgb(230,230,230); fill-rule: nonzero; opacity: 1;"  x="-3" y="-0.5" rx="0" ry="0" width="6" height="1" />
</g>
<g transform="matrix(1.47 0 0 1.47 156.71 317.92)"  >
<rect style="stroke: none; stroke-width: 1; stroke-dasharray: none; stroke-linecap: butt; stroke-dashoffset: 0; stroke-linejoin: miter; stroke-miterlimit: 4; fill: rgb(230,230,230); fill-rule: nonzero; opacity: 1;"  x="-3" y="-0.5" rx="0" ry="0" width="6" height="1" />
</g>
<g transform="matrix(1.47 0 0 1.47 89.12 317.92)"  >
<path style="stroke: none; stroke-width: 1; stroke-dasharray: none; stroke-linecap: butt; stroke-dashoffset: 0; stroke-linejoin: miter; stroke-miterlimit: 4; fill: rgb(230,230,230); fill-rule: nonzero; opacity: 1;"  transform=" translate(-642.9, -383)" d="M 673.61593 383.5 H 661.33029 v -1 h 12.28564 Z m -24.57153 0 H 636.75875 v -1 H 649.0444 Z m -24.57129 0 H 612.18746 v -1 h 12.28565 Z" stroke-linecap="round" />
</g>
<g transform="matrix(1.47 0 0 1.47 21.54 317.92)"  >
<rect style="stroke: none; stroke-width: 1; stroke-dasharray: none; stroke-linecap: butt; stroke-dashoffset: 0; stroke-linejoin: miter; stroke-miterlimit: 4; fill: rgb(230,230,230); fill-rule: nonzero; opacity: 1;"  x="-3" y="-0.5" rx="0" ry="0" width="6" height="1" />
</g>
<g transform="matrix(1.47 0 0 1.47 325.41 281.76)"  >
<path style="stroke: none; stroke-width: 1; stroke-dasharray: none; stroke-linecap: butt; stroke-dashoffset: 0; stroke-linejoin: miter; stroke-miterlimit: 4; fill: rgb(83,109,254); fill-rule: nonzero; opacity: 1;"  transform=" translate(-803.74, -358.39)" d="M 1006.0715 256.51 V 427.77 a 32.53759 32.53759 0 0 1 -32.5 32.5 h -348 a 32.3954 32.3954 0 0 1 -24.16993 -10.8 v -1.53 a 31.40764 31.40764 0 0 0 23.97022 11.33 l 60.18994 -60.19 a 8.49808 8.49808 0 0 1 12.02 0 l 31.98975 31.98 l 74.99023 -74.98 a 8.49808 8.49808 0 0 1 12.02 0 l 43.98975 43.98 l 143.51025 -143.5 l 0.98975 -0.03 l 0.46 -0.01 Z" stroke-linecap="round" />
</g>
<g transform="matrix(1.47 0 0 1.47 320.05 252.81)"  >
<path style="stroke: rgb(0,0,0); stroke-opacity: 0.55; stroke-width: 1; stroke-dasharray: none; stroke-linecap: butt; stroke-dashoffset: 0; stroke-linejoin: miter; stroke-miterlimit: 4; fill: rgb(63,61,86); fill-rule: nonzero; opacity: 1;" vector-effect="non-scaling-stroke"  transform=" translate(-799.9, -338.5)" d="M 973.90157 460.5 h -348 a 32.53685 32.53685 0 0 1 -32.5 -32.5 V 249 a 32.53685 32.53685 0 0 1 32.5 -32.5 h 348 a 32.53684 32.53684 0 0 1 32.5 32.5 V 428 A 32.53684 32.53684 0 0 1 973.90157 460.5 Z m -348 -243 a 31.5357 31.5357 0 0 0 -31.5 31.5 V 428 a 31.5357 31.5357 0 0 0 31.5 31.5 h 348 a 31.53569 31.53569 0 0 0 31.5 -31.5 V 249 a 31.53569 31.53569 0 0 0 -31.5 -31.5 Z" stroke-linecap="round" />
</g>
<g transform="matrix(1.47 0 0 1.47 343.3 281.19)"  >
<path style="stroke: none; stroke-width: 1; stroke-dasharray: none; stroke-linecap: butt; stroke-dashoffset: 0; stroke-linejoin: miter; stroke-miterlimit: 4; fill: rgb(63,61,86); fill-rule: nonzero; opacity: 1;"  transform=" translate(-815.9, -358)" d="M 626.25509 460.35352 l -0.707 -0.707 l 60.34326 -60.34326 a 8.50871 8.50871 0 0 1 12.02051 0 L 729.90157 431.293 l 74.98975 -74.98975 a 8.50871 8.50871 0 0 1 12.02051 0 L 860.90157 400.293 l 144.64649 -144.64649 l 0.707 0.707 L 860.90157 401.707 L 816.2048 357.01025 a 7.49965 7.49965 0 0 0 -10.60645 0 L 729.90157 432.707 L 697.2048 400.01025 a 7.50909 7.50909 0 0 0 -10.60645 0 Z" stroke-linecap="round" />
</g>
<g transform="matrix(1.47 0 0 1.47 161.11 317.92)"  >
<circle style="stroke: none; stroke-width: 1; stroke-dasharray: none; stroke-linecap: butt; stroke-dashoffset: 0; stroke-linejoin: miter; stroke-miterlimit: 4; fill: rgb(63,61,86); fill-rule: nonzero; opacity: 1;"  cx="0" cy="0" r="7" />
</g>
<g transform="matrix(1.47 0 0 1.47 333.01 253.27)"  >
<circle style="stroke: none; stroke-width: 1; stroke-dasharray: none; stroke-linecap: butt; stroke-dashoffset: 0; stroke-linejoin: miter; stroke-miterlimit: 4; fill: rgb(63,61,86); fill-rule: nonzero; opacity: 1;"  cx="0" cy="0" r="7" />
</g>
<g transform="matrix(1.47 0 0 1.47 622.45 116.64)"  >
<circle style="stroke: none; stroke-width: 1; stroke-dasharray: none; stroke-linecap: butt; stroke-dashoffset: 0; stroke-linejoin: miter; stroke-miterlimit: 4; fill: rgb(63,61,86); fill-rule: nonzero; opacity: 1;"  cx="0" cy="0" r="7" />
</g>
</svg>